<?xml version="1.0" standalone="no"?>
<!DOCTYPE svg PUBLIC "-//W3C//DTD SVG 20010904//EN"
 "http://www.w3.org/TR/2001/REC-SVG-20010904/DTD/svg10.dtd">
<svg version="1.0" xmlns="http://www.w3.org/2000/svg"
 width="400.000000pt" height="400.000000pt" viewBox="0 0 400.000000 400.000000"
 preserveAspectRatio="xMidYMid meet">

<g transform="translate(0.000000,400.000000) scale(0.100000,-0.100000)"
fill="#000000" stroke="none">
<path d="M1505 3310 c-242 -104 -472 -203 -511 -220 -51 -22 -75 -39 -84 -58
-53 -115 -410 -1022 -410 -1043 0 -21 319 -785 422 -1011 25 -55 -40 -25 617
-289 245 -99 457 -179 472 -179 15 0 254 97 530 216 277 119 509 218 516 221
14 6 19 18 253 598 99 247 180 461 180 476 0 33 -424 1027 -449 1052 -26 27
-1028 427 -1065 426 -17 0 -229 -85 -471 -189z m945 -170 c250 -100 460 -187
467 -194 6 -6 99 -217 206 -469 l195 -457 -185 -463 c-101 -254 -190 -467
-196 -474 -7 -6 -218 -99 -470 -206 l-457 -196 -463 186 c-254 101 -467 190
-474 196 -6 7 -99 218 -206 469 l-195 457 184 463 c102 255 193 469 202 477
23 19 915 400 927 396 6 -1 215 -85 465 -185z"/>
<path d="M1456 2854 c-14 -26 -26 -50 -26 -54 0 -5 27 -55 60 -113 33 -57 60
-109 60 -116 0 -8 -40 -11 -133 -11 l-132 0 -53 -92 c-28 -50 -50 -93 -49 -95
2 -2 225 -2 495 -1 l492 3 -56 93 -55 92 -138 0 c-133 0 -138 1 -149 23 -7 12
-16 29 -22 37 -5 8 -42 71 -81 140 -39 69 -76 128 -82 132 -7 4 -33 8 -59 8
-45 0 -47 -2 -72 -46z"/>
<path d="M2473 2101 c-134 -230 -243 -421 -243 -425 0 -3 49 -6 108 -6 l108 0
69 120 69 120 192 0 192 0 28 47 27 47 -24 45 -24 46 -137 3 c-76 1 -138 5
-138 8 0 2 30 56 66 119 l66 115 -39 68 c-53 90 -67 112 -73 112 -3 0 -114
-189 -247 -419z"/>
<path d="M1550 1898 c-23 -40 -49 -83 -56 -95 -12 -20 -10 -29 29 -95 24 -40
55 -94 70 -119 l26 -46 -94 -163 c-52 -90 -95 -167 -95 -171 0 -5 12 -29 28
-54 l27 -46 54 3 54 3 64 110 c35 61 68 110 73 110 6 0 39 -49 73 -110 l63
-110 113 -3 113 -3 -20 33 c-11 18 -122 211 -247 428 -125 217 -228 396 -230
398 -2 2 -22 -29 -45 -70z"/>
</g>
</svg>
